<svg width="512" height="512" viewBox="0 0 512 512" fill="none" xmlns="http://www.w3.org/2000/svg">
<rect width="512" height="512" rx="125" fill="black"/>
<path d="M60 131.45H137.101L183.624 228.572L226.33 138.644H238.917L183.624 254.651L130.128 143.14H78.4312L178.679 354.022L257.798 188.554H269.037L296.908 246.108L290.165 258.248L263.642 203.842L178.679 381L60 131.45Z" fill="white"/>
<path d="M255.55 269.04L282.073 322.996L374.229 131H452L329.275 379.201H316.688L433.569 142.691H381.422L287.468 337.835H276.229L248.807 280.281L255.55 269.04Z" fill="white"/>
<path d="M60 131.45H137.101L183.624 228.572L226.33 138.644H238.917L183.624 254.651L130.128 143.14H78.4312L178.679 354.022L257.798 188.554H269.037L296.908 246.108L290.165 258.248L263.642 203.842L178.679 381L60 131.45Z" stroke="white" stroke-width="15"/>
<path d="M255.55 269.04L282.073 322.996L374.229 131H452L329.275 379.201H316.688L433.569 142.691H381.422L287.468 337.835H276.229L248.807 280.281L255.55 269.04Z" stroke="white" stroke-width="15"/>
</svg>
